<svg xmlns="http://www.w3.org/2000/svg" viewBox="0 0 1024 1024"><path fill="#1877F2" d="M1024,512C1024,229.23064,794.76936,0,512,0S0,229.23064,0,512c0,255.554,187.231,467.37012,432,505.77777V660H302V512h130V399.2C432,270.87982,508.43854,200,625.38922,200c56.00156,0,114.61081,10.00006,114.61081,10.00006V336H675.43713C611.83508,336,592,375.46667,592,416v96h142l-22.7,148H592v357.77777C836.769,979.37012,1024,767.554,1024,512z"/><path fill="#FFF" d="M711.3,660L734,512H592V416c0-40.53333,19.83508-80,83.43713-80H740V210.00006C740,210.00006,681.39078,200,625.38922,200C508.43854,200,432,270.87982,432,399.2V512H302v148h130v357.77777C458.50204,1021.96863,485.08817,1024,512,1024c26.91183,0,53.49796-2.03137,79.99999-6.22223V660H711.3z"/></svg>